{
  "accessors": [
    {
      "bufferView": 0,
      "componentType": 5126,
      "count": 1440,
      "type": "VEC3",
      "max": [
        2.319869041442871,
        -2.230154037475586,
        -2.6488850116729736
      ],
      "min": [
        -2.142767906188965,
        -6.747509002685547,
        -3.5400030612945557
      ]
    },
    {
      "bufferView": 1,
      "componentType": 5126,
      "count": 1440,
      "type": "VEC2",
      "max": [
        0.4980500042438507,
        0.905269980430603
      ],
      "min": [
        0.0,
        0.5
      ]
    },
    {
      "bufferView": 2,
      "componentType": 5126,
      "count": 43560,
      "type": "VEC3",
      "max": [
        2.880629062652588,
        8.656096458435059,
        -0.3075520098209381
      ],
      "min": [
        -2.8180160522460938,
        -6.953324794769287,
        -4.744326114654541
      ]
    },
    {
      "bufferView": 3,
      "componentType": 5126,
      "count": 43560,
      "type": "VEC2",
      "max": [
        0.5,
        1.0
      ],
      "min": [
        0.0,
        0.5
      ]
    },
    {
      "bufferView": 4,
      "componentType": 5126,
      "count": 816,
      "type": "VEC3",
      "max": [
        -2.3344359397888184,
        2.6964550018310547,
        -1.3328720331192017
      ],
      "min": [
        -3.7184529304504395,
        -1.2767939567565918,
        -3.4587008953094482
      ]
    },
    {
      "bufferView": 5,
      "componentType": 5126,
      "count": 816,
      "type": "VEC2",
      "max": [
        0.4794900119304657,
        0.9208999872207642
      ],
      "min": [
        0.0,
        0.5
      ]
    },
    {
      "bufferView": 6,
      "componentType": 5126,
      "count": 816,
      "type": "VEC3",
      "max": [
        5.9000091552734375,
        1.4051710367202759,
        -1.0095939636230469
      ],
      "min": [
        2.487658977508545,
        -1.350911021232605,
        -3.0737810134887695
      ]
    },
    {
      "bufferView": 7,
      "componentType": 5126,
      "count": 816,
      "type": "VEC2",
      "max": [
        0.5,
        0.8896499872207642
      ],
      "min": [
        0.0,
        0.5
      ]
    },
    {
      "bufferView": 8,
      "componentType": 5126,
      "count": 1008,
      "type": "VEC3",
      "max": [
        2.4863200187683105,
        8.267775535583496,
        -3.3552730083465576
      ],
      "min": [
        -2.3651249408721924,
        6.203402042388916,
        -4.498247146606445
      ]
    },
    {
      "bufferView": 9,
      "componentType": 5126,
      "count": 1008,
      "type": "VEC2",
      "max": [
        0.5,
        0.9570299983024597
      ],
      "min": [
        0.17969000339508057,
        0.5029299855232239
      ]
    },
    {
      "bufferView": 10,
      "componentType": 5126,
      "count": 11520,
      "type": "VEC3",
      "max": [
        3.393505096435547,
        -2.853940010070801,
        -0.08445099741220474
      ],
      "min": [
        1.7521480321884155,
        -5.108508110046387,
        -2.3113958835601807
      ]
    },
    {
      "bufferView": 11,
      "componentType": 5126,
      "count": 11520,
      "type": "VEC2",
      "max": [
        0.5,
        1.0
      ],
      "min": [
        0.0,
        0.5
      ]
    },
    {
      "bufferView": 12,
      "componentType": 5126,
      "count": 11520,
      "type": "VEC3",
      "max": [
        3.2944839000701904,
        6.065666198730469,
        0.14296700060367584
      ],
      "min": [
        1.9913309812545776,
        3.660501003265381,
        -2.3577189445495605
      ]
    },
    {
      "bufferView": 13,
      "componentType": 5126,
      "count": 11520,
      "type": "VEC3",
      "max": [
        -1.9931089878082275,
        -2.8396949768066406,
        -0.06991499662399292
      ],
      "min": [
        -3.655893087387085,
        -5.1236891746521,
        -2.325932025909424
      ]
    },
    {
      "bufferView": 14,
      "componentType": 5126,
      "count": 11520,
      "type": "VEC3",
      "max": [
        -0.6890469789505005,
        6.334989070892334,
        0.021205000579357147
      ],
      "min": [
        -3.5657689571380615,
        3.4583210945129395,
        -0.8828700184822083
      ]
    },
    {
      "bufferView": 15,
      "componentType": 5126,
      "count": 7344,
      "type": "VEC3",
      "max": [
        3.986922025680542,
        8.632250785827637,
        0.1653359979391098
      ],
      "min": [
        2.7631750106811523,
        6.289935111999512,
        -2.2689449787139893
      ]
    },
    {
      "bufferView": 16,
      "componentType": 5126,
      "count": 7344,
      "type": "VEC2",
      "max": [
        0.5,
        1.0
      ],
      "min": [
        0.0,
        0.5
      ]
    },
    {
      "bufferView": 17,
      "componentType": 5126,
      "count": 2064,
      "type": "VEC3",
      "max": [
        4.45042610168457,
        -0.8201709985733032,
        0.19419099390506744
      ],
      "min": [
        2.550539016723633,
        -2.5616579055786133,
        -2.20094895362854
      ]
    },
    {
      "bufferView": 18,
      "componentType": 5126,
      "count": 2064,
      "type": "VEC2",
      "max": [
        0.5,
        1.0
      ],
      "min": [
        0.0,
        0.5
      ]
    },
    {
      "bufferView": 19,
      "componentType": 5126,
      "count": 13248,
      "type": "VEC3",
      "max": [
        3.67466402053833,
        -2.78314208984375,
        0.03125600144267082
      ],
      "min": [
        2.426851987838745,
        -3.6188759803771973,
        -4.751911163330078
      ]
    },
    {
      "bufferView": 20,
      "componentType": 5126,
      "count": 13248,
      "type": "VEC2",
      "max": [
        0.5,
        1.0
      ],
      "min": [
        0.0,
        0.5
      ]
    },
    {
      "bufferView": 21,
      "componentType": 5126,
      "count": 4320,
      "type": "VEC3",
      "max": [
        2.4461140632629395,
        1.2004859447479248,
        -1.7230089902877808
      ],
      "min": [
        0.8681269884109497,
        0.20641499757766724,
        -1.9127540588378906
      ]
    },
    {
      "bufferView": 22,
      "componentType": 5126,
      "count": 4320,
      "type": "VEC2",
      "max": [
        0.5,
        1.0
      ],
      "min": [
        0.0,
        0.5
      ]
    },
    {
      "bufferView": 23,
      "componentType": 5126,
      "count": 3312,
      "type": "VEC3",
      "max": [
        0.732437014579773,
        7.492578983306885,
        -1.7499489784240723
      ],
      "min": [
        -0.0033549999352544546,
        6.753561973571777,
        -2.0855119228363037
      ]
    },
    {
      "bufferView": 24,
      "componentType": 5126,
      "count": 3312,
      "type": "VEC2",
      "max": [
        0.5,
        1.0
      ],
      "min": [
        0.0,
        0.6328099966049194
      ]
    }
  ],
  "asset": {
    "generator": "TO_BE_NAMED glTF v2 Exporter",
    "version": "2.0"
  },
  "buffers": [
    {
      "uri": "model.bin",
      "byteLength": 2203680
    }
  ],
  "bufferViews": [
    {
      "buffer": 0,
      "byteLength": 17280,
      "target": 34962
    },
    {
      "buffer": 0,
      "byteOffset": 17280,
      "byteLength": 11520,
      "target": 34962
    },
    {
      "buffer": 0,
      "byteOffset": 28800,
      "byteLength": 522720,
      "target": 34962
    },
    {
      "buffer": 0,
      "byteOffset": 551520,
      "byteLength": 348480,
      "target": 34962
    },
    {
      "buffer": 0,
      "byteOffset": 900000,
      "byteLength": 9792,
      "target": 34962
    },
    {
      "buffer": 0,
      "byteOffset": 909792,
      "byteLength": 6528,
      "target": 34962
    },
    {
      "buffer": 0,
      "byteOffset": 916320,
      "byteLength": 9792,
      "target": 34962
    },
    {
      "buffer": 0,
      "byteOffset": 926112,
      "byteLength": 6528,
      "target": 34962
    },
    {
      "buffer": 0,
      "byteOffset": 932640,
      "byteLength": 12096,
      "target": 34962
    },
    {
      "buffer": 0,
      "byteOffset": 944736,
      "byteLength": 8064,
      "target": 34962
    },
    {
      "buffer": 0,
      "byteOffset": 952800,
      "byteLength": 138240,
      "target": 34962
    },
    {
      "buffer": 0,
      "byteOffset": 1091040,
      "byteLength": 92160,
      "target": 34962
    },
    {
      "buffer": 0,
      "byteOffset": 1183200,
      "byteLength": 138240,
      "target": 34962
    },
    {
      "buffer": 0,
      "byteOffset": 1321440,
      "byteLength": 138240,
      "target": 34962
    },
    {
      "buffer": 0,
      "byteOffset": 1459680,
      "byteLength": 138240,
      "target": 34962
    },
    {
      "buffer": 0,
      "byteOffset": 1597920,
      "byteLength": 88128,
      "target": 34962
    },
    {
      "buffer": 0,
      "byteOffset": 1686048,
      "byteLength": 58752,
      "target": 34962
    },
    {
      "buffer": 0,
      "byteOffset": 1744800,
      "byteLength": 24768,
      "target": 34962
    },
    {
      "buffer": 0,
      "byteOffset": 1769568,
      "byteLength": 16512,
      "target": 34962
    },
    {
      "buffer": 0,
      "byteOffset": 1786080,
      "byteLength": 158976,
      "target": 34962
    },
    {
      "buffer": 0,
      "byteOffset": 1945056,
      "byteLength": 105984,
      "target": 34962
    },
    {
      "buffer": 0,
      "byteOffset": 2051040,
      "byteLength": 51840,
      "target": 34962
    },
    {
      "buffer": 0,
      "byteOffset": 2102880,
      "byteLength": 34560,
      "target": 34962
    },
    {
      "buffer": 0,
      "byteOffset": 2137440,
      "byteLength": 39744,
      "target": 34962
    },
    {
      "buffer": 0,
      "byteOffset": 2177184,
      "byteLength": 26496,
      "target": 34962
    }
  ],
  "meshes": [
    {
      "primitives": [
        {
          "attributes": {
            "POSITION": 0,
            "TEXCOORD_0": 1
          },
          "mode": 4
        }
      ]
    },
    {
      "primitives": [
        {
          "attributes": {
            "POSITION": 2,
            "TEXCOORD_0": 3
          },
          "mode": 4
        }
      ]
    },
    {
      "primitives": [
        {
          "attributes": {
            "POSITION": 4,
            "TEXCOORD_0": 5
          },
          "mode": 4
        }
      ]
    },
    {
      "primitives": [
        {
          "attributes": {
            "POSITION": 6,
            "TEXCOORD_0": 7
          },
          "mode": 4
        }
      ]
    },
    {
      "primitives": [
        {
          "attributes": {
            "POSITION": 8,
            "TEXCOORD_0": 9
          },
          "mode": 4
        }
      ]
    },
    {
      "primitives": [
        {
          "attributes": {
            "POSITION": 10,
            "TEXCOORD_0": 11
          },
          "mode": 4
        }
      ]
    },
    {
      "primitives": [
        {
          "attributes": {
            "POSITION": 12,
            "TEXCOORD_0": 11
          },
          "mode": 4
        }
      ]
    },
    {
      "primitives": [
        {
          "attributes": {
            "POSITION": 13,
            "TEXCOORD_0": 11
          },
          "mode": 4
        }
      ]
    },
    {
      "primitives": [
        {
          "attributes": {
            "POSITION": 14,
            "TEXCOORD_0": 11
          },
          "mode": 4
        }
      ]
    },
    {
      "primitives": [
        {
          "attributes": {
            "POSITION": 15,
            "TEXCOORD_0": 16
          },
          "mode": 4
        }
      ]
    },
    {
      "primitives": [
        {
          "attributes": {
            "POSITION": 17,
            "TEXCOORD_0": 18
          },
          "mode": 4
        }
      ]
    },
    {
      "primitives": [
        {
          "attributes": {
            "POSITION": 19,
            "TEXCOORD_0": 20
          },
          "mode": 4
        }
      ]
    },
    {
      "primitives": [
        {
          "attributes": {
            "POSITION": 21,
            "TEXCOORD_0": 22
          },
          "mode": 4
        }
      ]
    },
    {
      "primitives": [
        {
          "attributes": {
            "POSITION": 23,
            "TEXCOORD_0": 24
          },
          "mode": 4
        }
      ]
    }
  ],
  "nodes": [
    {
      "mesh": 0,
      "rotation": [
        0.7071068,
        0.0,
        0.0,
        0.7071067
      ],
      "scale": [
        0.4407046139240265,
        0.4407046139240265,
        0.4407046139240265
      ],
      "translation": [
        0.0,
        0.0,
        0.0
      ],
      "name": "034-0-34"
    },
    {
      "mesh": 1,
      "rotation": [
        0.7071068,
        0.0,
        0.0,
        0.7071067
      ],
      "scale": [
        0.4407046139240265,
        0.4407046139240265,
        0.4407046139240265
      ],
      "translation": [
        0.0,
        0.0,
        0.0
      ],
      "name": "033-0-33"
    },
    {
      "mesh": 2,
      "rotation": [
        0.7071068,
        0.0,
        0.0,
        0.7071067
      ],
      "scale": [
        0.4407046139240265,
        0.4407046139240265,
        0.4407046139240265
      ],
      "translation": [
        0.0,
        0.0,
        0.0
      ],
      "name": "032-0-32"
    },
    {
      "mesh": 3,
      "rotation": [
        0.7071068,
        0.0,
        0.0,
        0.7071067
      ],
      "scale": [
        0.4407046139240265,
        0.4407046139240265,
        0.4407046139240265
      ],
      "translation": [
        0.0,
        0.0,
        0.0
      ],
      "name": "031-0-31"
    },
    {
      "mesh": 4,
      "rotation": [
        0.7071068,
        0.0,
        0.0,
        0.7071067
      ],
      "scale": [
        0.4407046139240265,
        0.4407046139240265,
        0.4407046139240265
      ],
      "translation": [
        0.0,
        0.0,
        0.0
      ],
      "name": "030-0-30"
    },
    {
      "mesh": 5,
      "rotation": [
        0.7071068,
        0.0,
        0.0,
        0.7071067
      ],
      "scale": [
        0.4407046139240265,
        0.4407046139240265,
        0.4407046139240265
      ],
      "translation": [
        0.0,
        0.0,
        0.0
      ],
      "name": "029-0-29"
    },
    {
      "mesh": 6,
      "rotation": [
        0.7071068,
        0.0,
        0.0,
        0.7071067
      ],
      "scale": [
        0.4407046139240265,
        0.4407046139240265,
        0.4407046139240265
      ],
      "translation": [
        0.0,
        0.0,
        0.0
      ],
      "name": "028-0-28"
    },
    {
      "mesh": 7,
      "rotation": [
        0.7071068,
        0.0,
        0.0,
        0.7071067
      ],
      "scale": [
        0.4407046139240265,
        0.4407046139240265,
        0.4407046139240265
      ],
      "translation": [
        0.0,
        0.0,
        0.0
      ],
      "name": "027-0-27"
    },
    {
      "mesh": 8,
      "rotation": [
        0.7071068,
        0.0,
        0.0,
        0.7071067
      ],
      "scale": [
        0.4407046139240265,
        0.4407046139240265,
        0.4407046139240265
      ],
      "translation": [
        0.0,
        0.0,
        0.0
      ],
      "name": "026-0-26"
    },
    {
      "mesh": 9,
      "rotation": [
        0.7071068,
        0.0,
        0.0,
        0.7071067
      ],
      "scale": [
        0.4407046139240265,
        0.4407046139240265,
        0.4407046139240265
      ],
      "translation": [
        0.0,
        0.0,
        0.0
      ],
      "name": "025-0-25"
    },
    {
      "mesh": 10,
      "rotation": [
        0.7071068,
        0.0,
        0.0,
        0.7071067
      ],
      "scale": [
        0.4407046139240265,
        0.4407046139240265,
        0.4407046139240265
      ],
      "translation": [
        0.0,
        0.0,
        0.0
      ],
      "name": "019-0-19"
    },
    {
      "mesh": 11,
      "rotation": [
        0.7071068,
        0.0,
        0.0,
        0.7071067
      ],
      "scale": [
        0.4407046139240265,
        0.4407046139240265,
        0.4407046139240265
      ],
      "translation": [
        0.0,
        0.0,
        0.0
      ],
      "name": "018-0-18"
    },
    {
      "mesh": 12,
      "rotation": [
        0.7071068,
        0.0,
        0.0,
        0.7071067
      ],
      "scale": [
        0.4407046139240265,
        0.4407046139240265,
        0.4407046139240265
      ],
      "translation": [
        0.0,
        0.0,
        0.0
      ],
      "name": "017-0-17"
    },
    {
      "mesh": 13,
      "rotation": [
        0.7071068,
        0.0,
        0.0,
        0.7071067
      ],
      "scale": [
        0.4407046139240265,
        0.4407046139240265,
        0.4407046139240265
      ],
      "translation": [
        0.0,
        0.0,
        0.0
      ],
      "name": "001-0-1"
    },
    {
      "children": [
        0,
        1,
        2,
        3,
        4,
        5,
        6,
        7,
        8,
        9,
        10,
        11,
        12,
        13
      ],
      "name": "root"
    }
  ],
  "scene": 0,
  "scenes": [
    {
      "nodes": [
        14
      ]
    }
  ]
}